<svg width="200" height="40" viewBox="0 0 200 40" fill="none" xmlns="http://www.w3.org/2000/svg">
  <!-- Shield with medical cross and lock -->
  <path d="M20 5L35 20L20 35L5 20L20 5Z" fill="#0056B3" />
  <path d="M20 9L31 20L20 31L9 20L20 9Z" fill="#fff" />
  
  <!-- Medical cross -->
  <rect x="18" y="13" width="4" height="14" rx="1" fill="#0056B3" />
  <rect x="13" y="18" width="14" height="4" rx="1" fill="#0056B3" />
  
  <!-- Lock circle small -->
  <circle cx="20" cy="20" r="3" fill="#0056B3" />
  
  <!-- Text: SHTP -->
  <path d="M44 24.5C44 22.5 45.5 21 47.5 21C49 21 50.5 22 50.5 24H48.5C48.5 23 48 22.5 47.5 22.5C46.5 22.5 46 23.5 46 24.5C46 25.5 46.5 26.5 47.5 26.5C48 26.5 48.5 26 48.5 25H50.5C50.5 27 49 28 47.5 28C45.5 28 44 26.5 44 24.5Z" fill="#333" />
  
  <path d="M52 17H58V19H55V22H57V24H55V28H52V17Z" fill="#333" />
  
  <path d="M59 17H62V26H65V28H59V17Z" fill="#333" />
  
  <path d="M66 17H72V19H69V21.5H71V23.5H69V26H72V28H66V17Z" fill="#333" />
  
  <!-- Divider -->
  <line x1="78" y1="17" x2="78" y2="28" stroke="#0056B3" strokeWidth="1.5" />
  
  <!-- Text: Secure Health Triad Protocol -->
  <!-- S -->
  <path d="M85 24.5C85 22.5 86.5 21 88.5 21C90 21 91.5 22 91.5 24H89.5C89.5 23 89 22.5 88.5 22.5C87.5 22.5 87 23.5 87 24.5C87 25.5 87.5 26.5 88.5 26.5C89 26.5 89.5 26 89.5 25H91.5C91.5 27 90 28 88.5 28C86.5 28 85 26.5 85 24.5Z" fill="#0056B3" />
  
  <!-- e -->
  <path d="M96 23.5H94C94 23 93.8 22.5 93.5 22.5C93.2 22.5 93 23 93 23.5V25.5C93 26 93.2 26.5 93.5 26.5C93.8 26.5 94 26 94 25.5H96C96 27 95 28 93.5 28C92 28 91 27 91 25.5V23.5C91 22 92 21 93.5 21C95 21 96 22 96 23.5Z" fill="#0056B3" />
  
  <!-- c -->
  <path d="M101 23.5H99C99 23 98.8 22.5 98.5 22.5C98.2 22.5 98 23 98 23.5V25.5C98 26 98.2 26.5 98.5 26.5C98.8 26.5 99 26 99 25.5H101C101 27 100 28 98.5 28C97 28 96 27 96 25.5V23.5C96 22 97 21 98.5 21C100 21 101 22 101 23.5Z" fill="#0056B3" />
  
  <!-- u -->
  <path d="M105 23.5C105 23 104.8 22.5 104.5 22.5C104.2 22.5 104 23 104 23.5V28H102V23.5C102 22 103 21 104.5 21C106 21 107 22 107 23.5V28H105V23.5Z" fill="#0056B3" />
  
  <!-- r -->
  <path d="M108 21H110V22.5C110.5 21.5 111.333 21 112.5 21H113V23H112C111 23 110 23.5 110 24.5V28H108V21Z" fill="#0056B3" />
  
  <!-- e -->
  <path d="M119 23.5H117C117 23 116.8 22.5 116.5 22.5C116.2 22.5 116 23 116 23.5V25.5C116 26 116.2 26.5 116.5 26.5C116.8 26.5 117 26 117 25.5H119C119 27 118 28 116.5 28C115 28 114 27 114 25.5V23.5C114 22 115 21 116.5 21C118 21 119 22 119 23.5Z" fill="#0056B3" />
  
  <!-- H -->
  <path d="M125 21H127V24H129V21H131V28H129V26H127V28H125V21Z" fill="#0056B3" />
  
  <!-- e -->
  <path d="M138 23.5H136C136 23 135.8 22.5 135.5 22.5C135.2 22.5 135 23 135 23.5V25.5C135 26 135.2 26.5 135.5 26.5C135.8 26.5 136 26 136 25.5H138C138 27 137 28 135.5 28C134 28 133 27 133 25.5V23.5C133 22 134 21 135.5 21C137 21 138 22 138 23.5Z" fill="#0056B3" />
  
  <!-- a -->
  <path d="M142 23.5C142 23 141.8 22.5 141.5 22.5C141.2 22.5 141 23 141 23.5V25.5C141 26 141.2 26.5 141.5 26.5C141.8 26.5 142 26 142 25.5V23.5ZM139 23.5C139 22 140 21 141.5 21C143 21 144 22 144 23.5V28H142V26.5C141.5 27.5 140.667 28 139.5 28C138.5 28 138 27 138 26C138 24.5 139 24 140 24H142C142 23 141.5 22.5 141 22.5C140.5 22.5 140 23 140 23.5H139Z" fill="#0056B3" />
  
  <!-- l -->
  <path d="M145 17H147V28H145V17Z" fill="#0056B3" />
  
  <!-- t -->
  <path d="M151 21.5C150.333 21.5 150 21.8333 150 22.5V28H148V22.5C148 21.1667 148.833 20.5 150.5 20.5H151.5V22.5H151V21.5Z" fill="#0056B3" />
  
  <!-- h -->
  <path d="M153 17H155V22C155.5 21.3333 156.2 21 157 21C158.333 21 159 21.6667 159 23V28H157V23.5C157 23 156.8 22.5 156.5 22.5C156.2 22.5 156 23 156 23.5V28H154V17H155H153Z" fill="#0056B3" />
  
  <!-- T -->
  <path d="M163 21H169V23H167V28H165V23H163V21Z" fill="#0056B3" />
  
  <!-- r -->
  <path d="M170 21H172V22.5C172.5 21.5 173.333 21 174.5 21H175V23H174C173 23 172 23.5 172 24.5V28H170V21Z" fill="#0056B3" />
  
  <!-- i -->
  <path d="M176 19H178V21H176V19ZM176 21H178V28H176V21Z" fill="#0056B3" />
  
  <!-- a -->
  <path d="M183 23.5C183 23 182.8 22.5 182.5 22.5C182.2 22.5 182 23 182 23.5V25.5C182 26 182.2 26.5 182.5 26.5C182.8 26.5 183 26 183 25.5V23.5ZM180 23.5C180 22 181 21 182.5 21C184 21 185 22 185 23.5V28H183V26.5C182.5 27.5 181.667 28 180.5 28C179.5 28 179 27 179 26C179 24.5 180 24 181 24H183C183 23 182.5 22.5 182 22.5C181.5 22.5 181 23 181 23.5H180Z" fill="#0056B3" />
  
  <!-- d -->
  <path d="M188 23.5C188 23 187.8 22.5 187.5 22.5C187.2 22.5 187 23 187 23.5V25.5C187 26 187.2 26.5 187.5 26.5C187.8 26.5 188 26 188 25.5V23.5ZM185 23.5C185 22 186 21 187.5 21C188.5 21 189.3 21.5 189.8 22.5V17H191.8V28H189.8V26.5C189.3 27.5 188.5 28 187.5 28C186 28 185 27 185 25.5V23.5Z" fill="#0056B3" />
</svg> 